<svg width="18" height="18" viewBox="0 0 18 18" fill="none" xmlns="http://www.w3.org/2000/svg">
<path d="M6.46394 6.15632C7.05616 6.74854 7.05616 7.63686 6.46394 8.22908C5.87173 8.8213 4.9834 8.8213 4.39118 8.22908C3.79897 7.63686 3.79897 6.74854 4.39118 6.15632C4.9834 5.5641 5.87173 5.5641 6.46394 6.15632" stroke="black" stroke-width="0.8" stroke-linecap="round" stroke-linejoin="round"/>
<path fill-rule="evenodd" clip-rule="evenodd" d="M13.1286 5.40918C13.981 6.26149 13.981 7.6252 13.1286 8.39228C12.2763 9.15936 10.9126 9.2446 10.1455 8.39228C9.37845 7.53996 9.29322 6.17626 10.1455 5.40918C10.9126 4.64209 12.2763 4.64209 13.1286 5.40918Z" stroke="black" stroke-width="0.8" stroke-linecap="round" stroke-linejoin="round"/>
<path d="M15.6002 14.3457C15.6002 12.4453 13.7593 10.5083 11.3543 10.5083C8.94936 10.5083 6.90796 12.4453 6.90796 14.3531" stroke="black" stroke-width="0.8" stroke-linecap="round"/>
<path d="M2.3938 13.4441C2.3938 11.7871 4.16684 10.1047 6.25564 10.1047" stroke="black" stroke-width="0.8" stroke-linecap="round"/>
</svg>
