<svg width="15" height="15" viewBox="0 0 15 15" fill="none" xmlns="http://www.w3.org/2000/svg">
<path d="M7.5 10.3125C9.0533 10.3125 10.3125 9.0533 10.3125 7.5C10.3125 5.9467 9.0533 4.6875 7.5 4.6875C5.9467 4.6875 4.6875 5.9467 4.6875 7.5C4.6875 9.0533 5.9467 10.3125 7.5 10.3125Z" stroke="#2A2B2D" stroke-width="0.8" stroke-linecap="round" stroke-linejoin="round"/>
<path d="M10.7215 3.51932C10.7488 3.7102 10.8439 3.88593 10.9803 4.02227V4.02227C11.1169 4.15884 11.29 4.25125 11.4812 4.27857L12.0113 4.3543C12.4998 4.42408 12.9414 4.70977 13.1304 5.16553V5.16553C13.3197 5.62203 13.2093 6.13723 12.9125 6.53239L12.5837 6.97017C12.4715 7.11952 12.413 7.22605 12.4165 7.4128V7.4128C12.4203 7.61174 12.4763 7.88684 12.5958 8.04593L12.9125 8.46758C13.2094 8.86283 13.3202 9.37806 13.1309 9.83466V9.83466C12.9418 10.2905 12.4999 10.5759 12.0113 10.6457L11.476 10.7222C11.2878 10.7491 11.1671 10.7841 11.0339 10.9197V10.9197C10.8964 11.0596 10.7485 11.2916 10.7208 11.4858L10.6457 12.0113C10.5759 12.4998 10.2902 12.9414 9.83447 13.1304V13.1304C9.37797 13.3197 8.86277 13.2093 8.46762 12.9125L8.03807 12.5899C7.88405 12.4742 7.69264 12.4233 7.5 12.4233V12.4233C7.30736 12.4233 7.11596 12.4742 6.96193 12.5899L6.53242 12.9125C6.13718 13.2094 5.62194 13.3202 5.16534 13.1309V13.1309C4.70948 12.9418 4.42409 12.4999 4.35429 12.0113L4.27852 11.4809C4.2512 11.2896 4.15907 11.1141 4.02246 10.9775V10.9775C3.88585 10.8409 3.71035 10.7488 3.5191 10.7215L2.98865 10.6457C2.50021 10.5759 2.05864 10.2902 1.8696 9.83447V9.83447C1.68025 9.37797 1.79068 8.86277 2.0875 8.46762L2.41633 8.02983C2.52851 7.88048 2.58704 7.77396 2.58348 7.5872V7.5872C2.57969 7.38826 2.52373 7.11316 2.40424 6.95407L2.08752 6.53242C1.79064 6.13718 1.67975 5.62194 1.86914 5.16534V5.16534C2.05822 4.70948 2.50014 4.42409 2.98869 4.35429L3.5191 4.27852C3.71035 4.2512 3.88585 4.15907 4.02246 4.02246V4.02246C4.15907 3.88585 4.2512 3.71035 4.27852 3.5191L4.3543 2.98865C4.42408 2.50021 4.70977 2.05864 5.16553 1.8696V1.8696C5.62203 1.68025 6.13723 1.79068 6.53239 2.0875L6.96193 2.41014C7.11596 2.52583 7.30736 2.57666 7.5 2.57666V2.57666C7.69264 2.57666 7.88405 2.52583 8.03807 2.41014L8.46758 2.08752C8.86282 1.79064 9.37806 1.67975 9.83466 1.86914V1.86914C10.2905 2.05822 10.5759 2.50014 10.6457 2.98869L10.7215 3.51932Z" stroke="#2A2B2D" stroke-width="0.8" stroke-linecap="round" stroke-linejoin="round"/>
</svg>
