<svg width="18" height="18" viewBox="0 0 18 18" fill="none" xmlns="http://www.w3.org/2000/svg">
<path d="M14.0727 14.6905C14.2279 14.8477 14.4812 14.8494 14.6384 14.6942C14.7957 14.539 14.7973 14.2858 14.6422 14.1285L14.0727 14.6905ZM12.967 8.45277C12.967 10.9172 10.9692 12.915 8.50477 12.915V13.715C11.411 13.715 13.767 11.359 13.767 8.45277H12.967ZM8.50477 12.915C6.04037 12.915 4.04258 10.9172 4.04258 8.45277H3.24258C3.24258 11.359 5.59854 13.715 8.50477 13.715V12.915ZM4.04258 8.45277C4.04258 5.98837 6.04037 3.99058 8.50477 3.99058V3.19058C5.59854 3.19058 3.24258 5.54654 3.24258 8.45277H4.04258ZM8.50477 3.99058C10.9692 3.99058 12.967 5.98837 12.967 8.45277H13.767C13.767 5.54654 11.411 3.19058 8.50477 3.19058V3.99058ZM11.6223 12.2073L14.0727 14.6905L14.6422 14.1285L12.1918 11.6453L11.6223 12.2073Z" fill="black"/>
</svg>
